<?xml version="1.0" standalone="no"?>
<!DOCTYPE svg PUBLIC "-//W3C//DTD SVG 20010904//EN"
 "http://www.w3.org/TR/2001/REC-SVG-20010904/DTD/svg10.dtd">
<svg version="1.0" xmlns="http://www.w3.org/2000/svg"
 width="778.000000pt" height="223.000000pt" viewBox="0 0 778.000000 223.000000"
 preserveAspectRatio="xMidYMid meet">
<metadata>
Created by potrace 1.16, written by Peter Selinger 2001-2019
</metadata>
<g transform="translate(0.000000,223.000000) scale(0.100000,-0.100000)"
fill="#000000" stroke="none">
<path d="M792 2015 c-431 -117 -786 -215 -789 -218 -6 -7 36 -178 47 -190 6
-7 550 132 743 189 16 5 17 -42 17 -885 l0 -891 105 0 105 0 0 919 0 919 98
26 c53 15 194 53 312 85 141 38 216 63 218 72 5 28 -44 184 -59 185 -8 1 -366
-94 -797 -211z"/>
<path d="M4798 1329 l-3 -611 -400 551 c-220 303 -403 550 -407 551 -5 0 -8
-405 -8 -900 l0 -900 105 0 105 0 2 581 3 582 400 -551 c220 -303 403 -551
408 -551 4 -1 7 417 7 929 l0 930 -105 0 -105 0 -2 -611z"/>
<path d="M5240 975 l0 -955 100 0 100 0 0 413 0 414 396 109 396 109 -5 31
c-12 70 -48 173 -60 169 -40 -13 -707 -195 -716 -195 -8 0 -11 94 -11 325 l0
325 445 0 445 0 0 105 0 105 -545 0 -545 0 0 -955z"/>
<path d="M6520 1130 l0 -800 185 0 185 0 0 -165 c0 -91 1 -165 3 -165 1 0 200
85 442 189 l440 188 3 777 2 776 -630 0 -630 0 0 -800z m1048 -12 l-3 -602
-225 -97 c-124 -54 -228 -98 -232 -98 -5 -1 -8 49 -8 109 l0 110 -185 0 -185
0 0 590 0 590 420 0 420 0 -2 -602z"/>
<path d="M7070 1200 l0 -200 80 0 80 0 0 200 0 200 -80 0 -80 0 0 -200z"/>
<path d="M7290 1200 l0 -200 85 0 85 0 0 200 0 200 -85 0 -85 0 0 -200z"/>
<path d="M3540 970 l0 -950 105 0 105 0 0 950 0 950 -105 0 -105 0 0 -950z"/>
<path d="M3135 1837 c-7 -18 -113 -304 -235 -637 -123 -333 -226 -608 -229
-612 -3 -4 -71 155 -151 353 -80 197 -148 359 -151 359 -3 0 -85 -161 -182
-357 -98 -199 -178 -351 -182 -343 -3 8 -79 293 -169 634 -91 340 -166 619
-168 621 -3 3 -191 -45 -197 -50 -4 -5 469 -1788 478 -1797 4 -5 94 170 201
386 107 217 197 395 200 395 3 0 75 -174 161 -386 86 -213 161 -388 165 -390
9 -2 669 1775 663 1782 -2 2 -46 19 -97 38 l-94 35 -13 -31z"/>
</g>
</svg>
