<?xml version="1.0" standalone="no"?>
<!DOCTYPE svg PUBLIC "-//W3C//DTD SVG 20010904//EN"
 "http://www.w3.org/TR/2001/REC-SVG-20010904/DTD/svg10.dtd">
<svg version="1.0" xmlns="http://www.w3.org/2000/svg"
 width="778.000000pt" height="778.000000pt" viewBox="0 0 778.000000 778.000000"
 preserveAspectRatio="xMidYMid meet">
<metadata>
Created by potrace 1.11, written by Peter Selinger 2001-2013
</metadata>
<g transform="translate(0.000000,778.000000) scale(0.100000,-0.100000)"
fill="#000000" stroke="none">
<path d="M1440 4955 c-85 -24 -267 -73 -405 -110 -137 -37 -329 -88 -425 -115
-96 -26 -272 -73 -390 -105 -118 -32 -216 -59 -217 -60 -1 0 9 -45 24 -98 15
-58 31 -96 37 -94 6 3 115 32 241 66 127 34 277 75 335 91 58 16 121 33 141
38 l36 10 1 -882 c0 -484 1 -887 1 -893 1 -10 28 -13 100 -13 l99 0 0 916 c0
504 4 919 8 923 8 7 212 64 508 142 60 16 111 31 113 33 4 3 -16 81 -39 152
l-13 42 -155 -43z"/>
<path d="M4809 4698 c0 -7 -1 -286 -1 -620 0 -335 -2 -608 -3 -608 -2 0 -185
249 -406 554 -222 305 -405 553 -407 551 -3 -3 -5 -1672 -2 -1767 0 -16 12
-18 100 -18 l100 0 -1 581 c0 320 2 583 5 586 3 3 13 -8 23 -24 10 -16 58 -83
106 -149 49 -65 213 -291 366 -501 153 -210 288 -394 300 -408 l21 -27 0 931
0 931 -100 0 c-73 0 -100 -3 -101 -12z"/>
<path d="M5240 3743 l0 -953 100 0 100 0 2 416 3 417 100 27 c55 15 227 63
382 106 155 42 287 80 292 84 10 5 -29 173 -43 187 -2 3 -56 -9 -118 -27 -62
-17 -120 -33 -128 -35 -8 -2 -98 -27 -200 -55 -102 -29 -192 -53 -200 -55 -8
-2 -31 -9 -50 -14 -19 -6 -36 -11 -37 -11 -2 0 -3 150 -3 333 l0 332 436 0
c262 0 438 3 441 9 8 12 10 186 3 187 -3 1 -247 2 -542 3 l-538 1 0 -952z"/>
<path d="M6525 4690 c-1 -3 -3 -359 -2 -792 0 -572 3 -788 11 -790 6 -2 89 -4
183 -3 108 0 174 -4 176 -10 2 -5 3 -77 2 -158 0 -82 3 -150 7 -153 5 -4 345
138 613 256 78 34 131 57 195 85 l65 27 -1 767 c-1 421 -2 768 -3 771 -1 7
-1242 7 -1246 0z m1045 -201 c7 -10 6 -1196 -1 -1203 -6 -7 -449 -197 -463
-199 -6 -1 -10 42 -11 108 l0 110 -180 1 c-99 1 -183 2 -186 3 -6 1 -10 1147
-3 1171 3 13 59 15 421 15 230 0 420 -2 423 -6z"/>
<path d="M7080 4162 c-16 -6 -13 -382 3 -383 6 0 41 -1 77 -2 l65 0 3 194 2
194 -70 0 c-38 0 -74 -1 -80 -3z"/>
<path d="M7315 4162 c-19 -3 -20 -10 -19 -188 1 -101 4 -187 7 -191 5 -5 85
-7 138 -4 15 1 17 22 17 191 0 170 -2 190 -17 191 -66 3 -109 4 -126 1z"/>
<path d="M3549 4651 c-1 -43 -1 -1843 0 -1853 1 -5 46 -8 101 -8 l99 0 -2 948
-2 947 -97 1 -98 0 -1 -35z"/>
<path d="M3139 4603 c-6 -15 -40 -107 -75 -203 -35 -96 -71 -191 -79 -210 -8
-19 -62 -165 -120 -325 -58 -159 -110 -299 -115 -310 -5 -11 -23 -60 -41 -110
-18 -49 -35 -93 -39 -97 -3 -4 -71 154 -150 352 -80 198 -148 360 -151 360 -6
0 -27 -41 -226 -447 -73 -150 -134 -273 -136 -273 -2 0 -4 6 -4 13 0 6 -46
183 -103 392 -56 209 -103 387 -105 395 -2 8 -17 67 -34 130 -17 63 -46 168
-63 233 -17 64 -36 117 -42 117 -27 -1 -181 -49 -179 -56 5 -26 60 -239 199
-759 185 -697 193 -726 234 -885 18 -69 36 -128 39 -132 8 -9 18 12 229 439
130 264 171 340 180 331 7 -7 12 -15 12 -19 0 -7 300 -751 305 -757 2 -3 35
84 159 418 416 1124 498 1346 499 1353 1 5 -32 22 -73 38 -114 44 -109 44
-121 12z"/>
</g>
</svg>
